<?xml version="1.0" encoding="iso-8859-1"?>
<!-- Uploaded to: SVG Repo, www.svgrepo.com, Generator: SVG Repo Mixer Tools -->
<svg fill="#000000" height="800px" width="800px" version="1.1" id="Layer_1" xmlns="http://www.w3.org/2000/svg" xmlns:xlink="http://www.w3.org/1999/xlink" 
	 viewBox="0 0 512 512" xml:space="preserve">
<g>
	<g>
		<path d="M433.936,125.154h-9.535c18.723-6.258,32.26-23.944,32.26-44.745c0-25.33-20.065-46.061-45.135-47.132
			C405.53,13.974,387.396,0,366.457,0c-20.945,0-39.075,13.973-45.063,33.278c-25.068,1.069-45.132,21.801-45.132,47.132
			c0,19.707,12.11,36.913,29.837,43.886v70.79c0,16.898-13.747,30.647-30.647,30.647H109.973v-0.158
			c0-39.175-31.871-71.046-71.046-71.046c-5.811,0-10.521,4.71-10.521,10.521v71.204c0,104.348,82.117,189.873,185.122,195.358
			v69.869c0,5.811,4.71,10.521,10.521,10.521h40.947c5.811,0,10.521-4.71,10.521-10.521s-4.71-10.521-10.521-10.521h-30.426v-59.347
			c48.318-2.543,93.375-22.558,127.827-57.021c29.633-29.633,48.577-67.098,54.925-107.722h1.464
			c22.178,0,40.221-18.043,40.221-40.221v-41.315h14.066c5.811,0,10.521-4.71,10.521-10.521
			C483.594,147.431,461.318,125.154,433.936,125.154z M49.447,176.682c22.537,4.845,39.484,24.927,39.484,48.892v0.158H49.447
			V176.682z M398.661,135.675v39.137v61.441c0,46.634-18.162,90.48-51.143,123.46c-32.968,32.978-76.817,51.141-123.469,51.141
			c-92.744,0-168.831-72.683-174.288-164.081h44.726v26.302c0,31.532,13.925,61.173,38.201,81.317
			c18.887,15.691,42.84,24.332,67.448,24.332c33.165,0,64.827-15.885,84.694-42.494c3.476-4.656,2.52-11.249-2.137-14.725
			c-4.654-3.476-11.248-2.52-14.725,2.136c-16.152,21.634-40.876,34.041-67.833,34.041c-16.004,0-31.66-4.562-45.078-13.006
			l21.836-24.158c3.897-4.31,3.56-10.964-0.75-14.859c-4.31-3.896-10.964-3.561-14.859,0.75l-22.514,24.908
			c-14.872-15.644-23.242-36.374-23.242-58.243v-26.302H284.73v22.641c0,5.811,4.71,10.521,10.521,10.521
			c5.811,0,10.521-4.71,10.521-10.521v-32.506c12.935-9.403,21.367-24.643,21.367-41.823v-72.761c0-1.539,0.089-3.092,0.265-4.608
			c2.313-19.785,19.101-34.707,39.053-34.707c17.757,0,32.204,14.442,32.204,32.193V135.675z M418.687,104.866
			c-4.827-24.423-26.407-42.899-52.23-42.899c-26.15,0-48.749,16.712-57.011,40.517c-7.37-4.669-12.142-12.871-12.142-22.075
			c0-14.41,11.719-26.133,26.123-26.133c1.512,0,3.075,0.143,4.647,0.424c2.93,0.525,5.943-0.215,8.296-2.037
			c2.352-1.822,3.824-4.553,4.05-7.52c1.029-13.515,12.466-24.102,26.037-24.102c13.57,0,25.011,10.589,26.048,24.108
			c0.227,2.967,1.701,5.699,4.056,7.519s5.367,2.557,8.299,2.03c1.558-0.281,3.114-0.423,4.627-0.423
			c14.41,0,26.133,11.724,26.133,26.133C435.62,91.583,428.57,101.136,418.687,104.866z M437.966,226.647
			c0,10.269-8.111,18.678-18.264,19.157v-60.472h18.264V226.647z M448.487,164.291h-28.785v-18.096h14.234
			c12.066,0,22.412,7.506,26.613,18.096H448.487z"/>
	</g>
</g>
<g>
	<g>
		<path d="M366.457,119.82c-5.811,0-10.521,4.71-10.521,10.521v10.678c0,5.811,4.71,10.521,10.521,10.521
			c5.811,0,10.521-4.71,10.521-10.521v-10.679C376.977,124.53,372.267,119.82,366.457,119.82z"/>
	</g>
</g>
<g>
	<g>
		<path d="M294.34,290.053c-5.568-1.653-11.425,1.523-13.078,7.094c-0.185,0.622-0.376,1.241-0.573,1.857
			c-1.78,5.531,1.26,11.458,6.792,13.238c1.072,0.345,2.157,0.509,3.226,0.509c4.446,0,8.576-2.841,10.013-7.3
			c0.247-0.769,0.486-1.542,0.716-2.32C303.086,297.561,299.91,291.706,294.34,290.053z"/>
	</g>
</g>
</svg>