<?xml version="1.0" encoding="iso-8859-1"?>
<!-- Uploaded to: SVG Repo, www.svgrepo.com, Generator: SVG Repo Mixer Tools -->
<svg fill="#000000" height="800px" width="800px" version="1.1" id="Layer_1" xmlns="http://www.w3.org/2000/svg" xmlns:xlink="http://www.w3.org/1999/xlink" 
	 viewBox="0 0 512 512" xml:space="preserve">
<g>
	<g>
		<path d="M503.983,188.271h-43.29v-10.177C489.624,174.166,512,149.318,512,119.327c0-29.759-47.134-106.71-52.508-115.386
			c-3.078-4.97-10.552-4.97-13.631,0c-5.374,8.676-52.508,85.627-52.508,115.386c0,29.991,22.376,54.84,51.307,58.767v10.177
			H204.159v-10.177c28.931-3.928,51.307-28.776,51.307-58.767c0-29.759-47.134-106.71-52.508-115.386
			c-3.079-4.962-10.551-4.962-13.63,0c-5.374,8.676-52.508,85.627-52.508,115.386c0,29.991,22.376,54.84,51.307,58.767v10.177
			h-51.841c-4.428,0-8.017,3.589-8.017,8.017s3.588,8.017,8.017,8.017h168.95c5.887,3.49,25.945,17.361,19.949,41.346
			c-4.256,17.03-35.277,29.327-68.118,42.346c-50.185,19.895-112.642,44.655-128.514,102.857
			c-12.292,45.067-2.355,86.031,28.735,118.465c3.269,3.411,8.94,3.2,11.958-0.43c2.572-3.093,2.398-7.764-0.384-10.665
			c-27.366-28.548-35.722-63.253-24.841-103.151c13.765-50.471,69.649-72.625,118.955-92.172
			c38.372-15.211,71.511-28.349,77.765-53.363c3.828-15.314,0.319-28.229-5.897-38.291c19.331,6.973,41.409,20.319,41.409,44.898
			c0,14.795-12.246,23.16-32.227,35.581c-21.722,13.504-48.755,30.312-53.222,66.038c-2.675,21.4,6.647,40.585,28.501,58.647
			c3.411,2.82,8.466,2.34,11.288-1.072c2.821-3.413,2.34-8.466-1.072-11.287c-17.767-14.685-24.8-28.347-22.806-44.299
			c3.517-28.136,25.001-41.493,45.778-54.41c19.565-12.163,39.795-24.741,39.795-49.198c0-21.56-11.695-39.325-33.952-51.841
			h145.652c4.428,0,8.017-3.589,8.017-8.017S508.412,188.271,503.983,188.271z M460.693,37.563
			c5.948,10.526,12.394,22.45,18.13,34.074l-18.13,9.064V37.563z M460.693,98.628l24.954-12.477
			c6.101,13.732,10.319,25.884,10.319,33.176c0,21.13-15.221,38.762-35.273,42.533V98.628z M204.159,37.563
			c11.776,20.84,25.508,47.17,31.802,65.763c-0.404,0.159-0.803,0.345-1.188,0.576l-30.614,18.368V37.563z M204.159,140.968
			l35.262-21.157c-0.232,20.914-15.364,38.307-35.262,42.049V140.968z M188.125,161.861c-20.052-3.771-35.273-21.404-35.273-42.533
			c0-7.289,4.219-19.441,10.321-33.175l24.952,12.476V161.861z M188.125,80.702l-18.127-9.063
			c5.736-11.623,12.18-23.545,18.127-34.071V80.702z M444.66,161.862c-20.052-3.772-35.273-21.405-35.273-42.534
			c0-1.89,0.296-4.121,0.822-6.606l34.451,27.561V161.862z M444.66,119.75l-29.237-23.39c6.988-17.833,18.866-40.436,29.237-58.792
			V119.75z"/>
	</g>
</g>
<g>
	<g>
		<path d="M102.079,188.271H67.34v-10.177c28.931-3.928,51.307-28.776,51.307-58.767c0-29.759-47.134-106.71-52.508-115.386
			c-3.078-4.97-10.552-4.97-13.631,0C47.134,12.618,0,89.568,0,119.327c0,29.991,22.376,54.84,51.307,58.767v10.177H8.017
			c-4.428,0-8.017,3.589-8.017,8.017s3.588,8.017,8.017,8.017h94.063c4.428,0,8.017-3.589,8.017-8.017
			S106.508,188.271,102.079,188.271z M67.34,37.563c5.948,10.526,12.394,22.45,18.13,34.074l-18.13,9.064V37.563z M67.34,98.628
			l24.954-12.477c6.101,13.732,10.319,25.884,10.319,33.176c0,21.13-15.221,38.762-35.273,42.533V98.628z M51.307,161.861
			c-20.052-3.771-35.273-21.404-35.273-42.533c0-2.105,0.367-4.632,1.012-7.466l34.261,20.556V161.861z M51.307,113.719
			L22.128,96.212c6.996-17.811,18.835-40.338,29.179-58.644V113.719z"/>
	</g>
</g>
<g>
	<g>
		<path d="M444.368,502.518c-4.945-31.218-38.799-51.027-71.538-70.184c-6.159-3.603-12.526-7.328-18.56-11.05
			c-3.717-2.295-8.739-1.102-11.031,2.616c-2.293,3.719-1.103,8.739,2.616,11.032c6.192,3.819,12.641,7.592,18.878,11.243
			c29.519,17.272,60.043,35.132,63.801,58.853c0.692,4.37,4.964,7.415,9.32,6.637C442.096,510.907,445.043,506.78,444.368,502.518z"
			/>
	</g>
</g>
</svg>